<svg xmlns="http://www.w3.org/2000/svg">
  <symbol id="logo" viewBox="0 0 24 24"><path d="M3 10.5 12 3l9 7.5v9a1.5 1.5 0 0 1-1.5 1.5h-15A1.5 1.5 0 0 1 3 19.5z"/><path d="M8.2 12.2c0-2.4 3-2.8 3.8-.8.8-2 3.8-1.6 3.8.8 0 2-3.8 4.2-3.8 4.2s-3.8-2.2-3.8-4.2Z"/></symbol>
  <symbol id="home" viewBox="0 0 24 24"><path d="m3 11 9-8 9 8"/><path d="M5 10v10h14V10M9 20v-6h6v6"/></symbol>
  <symbol id="calendar" viewBox="0 0 24 24"><rect x="3" y="5" width="18" height="16" rx="2"/><path d="M8 3v4m8-4v4M3 10h18M7 14h2m3 0h2m3 0h1M7 17h2m3 0h2"/></symbol>
  <symbol id="birthday" viewBox="0 0 24 24"><path d="M5 11h14v10H5zM3 15h18M8 11V8m4 3V7m4 4V8"/><path d="M8 8c-1.2-1.1-.8-2.3 0-3.2.8.9 1.2 2.1 0 3.2Zm4-1c-1.2-1.1-.8-2.3 0-3.2.8.9 1.2 2.1 0 3.2Zm4 1c-1.2-1.1-.8-2.3 0-3.2.8.9 1.2 2.1 0 3.2Z"/></symbol>
  <symbol id="cart" viewBox="0 0 24 24"><path d="M3 4h2l2.2 10.2a2 2 0 0 0 2 1.6h7.9a2 2 0 0 0 1.9-1.4L21 8H6"/><circle cx="10" cy="20" r="1.3"/><circle cx="18" cy="20" r="1.3"/></symbol>
  <symbol id="tasks" viewBox="0 0 24 24"><circle cx="12" cy="12" r="9"/><path d="m8 12 2.5 2.5L16 9"/></symbol>
  <symbol id="meals" viewBox="0 0 24 24"><path d="M7 3v8m-3-8v5a3 3 0 0 0 6 0V3M7 11v10M17 3v18M14 3v7a3 3 0 0 0 3 3"/></symbol>
  <symbol id="inventory" viewBox="0 0 24 24"><path d="m4 7 8-4 8 4-8 4zM4 7v10l8 4 8-4V7M12 11v10"/><path d="m8 5 8 4"/></symbol>
  <symbol id="expenses" viewBox="0 0 24 24"><path d="M3 7h15a3 3 0 0 1 3 3v8a2 2 0 0 1-2 2H5a2 2 0 0 1-2-2z"/><path d="M3 8V6a2 2 0 0 1 2-2h12v3M16 13h5"/><circle cx="17" cy="13" r=".7"/></symbol>
  <symbol id="pets" viewBox="0 0 24 24"><circle cx="7" cy="7" r="2"/><circle cx="17" cy="7" r="2"/><circle cx="4.5" cy="12" r="2"/><circle cx="19.5" cy="12" r="2"/><path d="M12 11c-3.6 0-6 3-5.2 5.7.6 2 2.8 2.3 5.2 1.1 2.4 1.2 4.6.9 5.2-1.1C18 14 15.6 11 12 11Z"/></symbol>
  <symbol id="outings" viewBox="0 0 24 24"><path d="m12 3 4 6h-2.5l4 5.5H15l4 6.5H5l4-6.5H6.5L10.5 9H8z"/></symbol>
  <symbol id="settings" viewBox="0 0 24 24"><circle cx="12" cy="12" r="3"/><path d="M19.4 15a1.7 1.7 0 0 0 .3 1.9l.1.1-2.8 2.8-.1-.1a1.7 1.7 0 0 0-1.9-.3 1.7 1.7 0 0 0-1 1.6v.2h-4V21a1.7 1.7 0 0 0-1-1.6 1.7 1.7 0 0 0-1.9.3l-.1.1L4.2 17l.1-.1a1.7 1.7 0 0 0 .3-1.9A1.7 1.7 0 0 0 3 14H2.8v-4H3a1.7 1.7 0 0 0 1.6-1 1.7 1.7 0 0 0-.3-1.9L4.2 7 7 4.2l.1.1a1.7 1.7 0 0 0 1.9.3A1.7 1.7 0 0 0 10 3V2.8h4V3a1.7 1.7 0 0 0 1 1.6 1.7 1.7 0 0 0 1.9-.3l.1-.1L19.8 7l-.1.1a1.7 1.7 0 0 0-.3 1.9 1.7 1.7 0 0 0 1.6 1h.2v4H21a1.7 1.7 0 0 0-1.6 1Z"/></symbol>
  <symbol id="activity" viewBox="0 0 24 24"><path d="M20 12a8 8 0 1 1-2.3-5.7L20 8.5M20 4v4.5h-4.5"/></symbol>
  <symbol id="templates" viewBox="0 0 24 24"><rect x="4" y="3" width="16" height="18" rx="2"/><path d="M8 8h8M8 12h8M8 16h5"/></symbol>
  <symbol id="menu" viewBox="0 0 24 24"><path d="M4 7h16M4 12h16M4 17h16"/></symbol>
  <symbol id="search" viewBox="0 0 24 24"><circle cx="11" cy="11" r="7"/><path d="m20 20-4-4"/></symbol>
  <symbol id="plus" viewBox="0 0 24 24"><path d="M12 5v14M5 12h14"/></symbol>
  <symbol id="cloud" viewBox="0 0 24 24"><path d="M7 18h10a4 4 0 0 0 .6-8 6 6 0 0 0-11.3-1.5A4.8 4.8 0 0 0 7 18Z"/></symbol>
  <symbol id="bell" viewBox="0 0 24 24"><path d="M18 8a6 6 0 0 0-12 0c0 7-3 7-3 9h18c0-2-3-2-3-9ZM10 21h4"/></symbol>
  <symbol id="theme" viewBox="0 0 24 24"><path d="M20 15.5A8.5 8.5 0 0 1 8.5 4 8.5 8.5 0 1 0 20 15.5Z"/></symbol>
  <symbol id="chevron-left" viewBox="0 0 24 24"><path d="m15 18-6-6 6-6"/></symbol>
  <symbol id="chevron-right" viewBox="0 0 24 24"><path d="m9 18 6-6-6-6"/></symbol>
  <symbol id="arrow-right" viewBox="0 0 24 24"><path d="M5 12h14m-5-5 5 5-5 5"/></symbol>
  <symbol id="more" viewBox="0 0 24 24"><circle cx="5" cy="12" r="1"/><circle cx="12" cy="12" r="1"/><circle cx="19" cy="12" r="1"/></symbol>
  <symbol id="edit" viewBox="0 0 24 24"><path d="m4 20 4.5-1 10-10-3.5-3.5-10 10zM13.5 6.5 17 10"/></symbol>
  <symbol id="trash" viewBox="0 0 24 24"><path d="M4 7h16M9 7V4h6v3M7 7l1 14h8l1-14M10 11v6m4-6v6"/></symbol>
  <symbol id="copy" viewBox="0 0 24 24"><rect x="8" y="8" width="12" height="12" rx="2"/><path d="M16 8V4H4v12h4"/></symbol>
</svg>
